<svg xmlns="http://www.w3.org/2000/svg" width="592.929" height="329.997" viewBox="0 0 592.929 329.997">
  <g id="Rad" transform="translate(-39.286 -61.827)" opacity="0.03">
    <path id="Pfad_12" data-name="Pfad 12" d="M516.506,391.824a115.7,115.7,0,0,1-50.2-219.954l-8.648-19.277L311.948,246.6l0,.008-5.69,2.6-58.967-129.2-31.419,51.13a115.153,115.153,0,1,1-5.4-3.157l33.692-54.829L223.678,68.263l-18.326-.181.06-6.255,67.934.669-.06,6.255-42.7-.421L250.058,111l195.8,0,26.153,58.3a115.71,115.71,0,1,1,44.5,222.523ZM468.87,177.578a108.728,108.728,0,1,0,5.7-2.569l43.389,96.708-5.706,2.56ZM155,160.046A109.53,109.53,0,1,0,212.6,176.465l-59.109,96.191-5.329-3.273L207.2,173.315A108.755,108.755,0,0,0,155,160.046Zm97.919-42.788,56.409,123.6L455.068,146.82l-13.262-29.562Zm70.728,161.984H290.284v-6.255h33.358Zm162.968-132.97v-6.255c14.69,0,26.643-10.652,26.643-23.743,0-14.882-8.273-26.989-18.439-26.989v0l-68.8-.461.042-6.255,69.033.465c13.491.2,24.42,15.034,24.42,33.242C519.508,132.816,504.751,146.271,486.611,146.271Z" fill="#222"/>
  </g>
</svg>
