<svg xmlns="http://www.w3.org/2000/svg" width="449.408" height="631.6" viewBox="0 0 449.408 631.6">
  <path id="Icon_ionic-ios-calculator" data-name="Icon ionic-ios-calculator" d="M408.417,3.375H56.178A48.532,48.532,0,0,0,7.594,51.96V586.391a48.532,48.532,0,0,0,48.585,48.585H408.417A48.533,48.533,0,0,0,457,586.391V51.96A48.533,48.533,0,0,0,408.417,3.375ZM390.2,416.344V537.806a36.351,36.351,0,0,1-36.438,36.438h0a36.351,36.351,0,0,1-36.439-36.438V416.344a36.351,36.351,0,0,1,36.439-36.438h0A36.351,36.351,0,0,1,390.2,416.344Zm0-121.462h0a36.351,36.351,0,0,1-36.438,36.438h0a36.351,36.351,0,0,1-36.439-36.438h0a36.351,36.351,0,0,1,36.439-36.438h0A36.351,36.351,0,0,1,390.2,294.883ZM268.736,537.806h0A36.351,36.351,0,0,1,232.3,574.244h0a36.351,36.351,0,0,1-36.438-36.438h0A36.351,36.351,0,0,1,232.3,501.367h0A36.351,36.351,0,0,1,268.736,537.806Zm0-121.462h0A36.351,36.351,0,0,1,232.3,452.783h0a36.351,36.351,0,0,1-36.438-36.439h0A36.351,36.351,0,0,1,232.3,379.906h0A36.351,36.351,0,0,1,268.736,416.344Zm0-121.462h0A36.351,36.351,0,0,1,232.3,331.321h0a36.351,36.351,0,0,1-36.438-36.438h0A36.351,36.351,0,0,1,232.3,258.444h0A36.351,36.351,0,0,1,268.736,294.883ZM147.275,537.806h0a36.351,36.351,0,0,1-36.438,36.438h0A36.351,36.351,0,0,1,74.4,537.806h0a36.351,36.351,0,0,1,36.438-36.439h0A36.351,36.351,0,0,1,147.275,537.806Zm0-121.462h0a36.351,36.351,0,0,1-36.438,36.439h0A36.351,36.351,0,0,1,74.4,416.344h0a36.351,36.351,0,0,1,36.438-36.438h0A36.351,36.351,0,0,1,147.275,416.344Zm0-121.462h0a36.351,36.351,0,0,1-36.438,36.438h0A36.351,36.351,0,0,1,74.4,294.883h0a36.351,36.351,0,0,1,36.438-36.438h0A36.351,36.351,0,0,1,147.275,294.883ZM74.4,173.421V100.544A24.364,24.364,0,0,1,98.69,76.252H365.905A24.364,24.364,0,0,1,390.2,100.544v72.877a24.364,24.364,0,0,1-24.292,24.292H98.69A24.364,24.364,0,0,1,74.4,173.421Z" transform="translate(-7.594 -3.375)" fill="#00aeea" opacity="0.05"/>
</svg>
