<svg width="20" height="20" viewBox="0 0 20 20" fill="none" xmlns="http://www.w3.org/2000/svg">
<path fill-rule="evenodd" clip-rule="evenodd" d="M2.46229 0.424934C1.89901 -0.141655 0.985745 -0.141654 0.422462 0.424934C-0.14082 0.991522 -0.140822 1.91014 0.422461 2.47673L7.96018 10.0587L0.539154 17.5233C-0.024128 18.0898 -0.0241277 19.0085 0.539155 19.5751C1.10244 20.1416 2.0157 20.1416 2.57898 19.5751L10 12.1105L17.421 19.5751C17.9843 20.1416 18.8976 20.1416 19.4608 19.5751C20.0241 19.0085 20.0241 18.0898 19.4608 17.5233L12.0398 10.0587L19.5775 2.47674C20.1408 1.91015 20.1408 0.99153 19.5775 0.424942C19.0143 -0.141647 18.101 -0.141649 17.5377 0.42494L10 8.00689L2.46229 0.424934Z" fill="#222222"/>
</svg>
