<svg xmlns="http://www.w3.org/2000/svg" width="507.159" height="439.537" viewBox="0 0 507.159 439.537">
  <path id="Icon_metro-directions-bike" data-name="Icon metro-directions-bike" d="M340.677,80.187A38.037,38.037,0,1,0,302.64,42.15,38.081,38.081,0,0,0,340.677,80.187Zm63.395,152.148A105.658,105.658,0,1,0,509.729,337.992,105.7,105.7,0,0,0,404.071,232.335Zm0,179.619a73.96,73.96,0,1,1,73.96-73.96A73.906,73.906,0,0,1,404.071,411.953ZM315.319,190.071h88.753V152.035H336.45L295.561,83.04A35.865,35.865,0,0,0,264.6,65.395,35.424,35.424,0,0,0,239.245,75.96l-78.187,78.081A35.853,35.853,0,0,0,150.492,179.5c0,13.313,7.079,24.513,17.962,31.063l70.791,42.9V359.123h38.037V222.19L229.736,186.9l49.025-49.236,36.558,52.406Zm-207.09,42.263A105.658,105.658,0,1,0,213.887,337.992,105.7,105.7,0,0,0,108.229,232.335Zm0,179.619a73.96,73.96,0,1,1,73.961-73.96A73.906,73.906,0,0,1,108.229,411.953Z" transform="translate(-2.571 -4.113)" opacity="0.03"/>
</svg>
