<svg xmlns="http://www.w3.org/2000/svg" width="523.617" height="427.657" viewBox="0 0 523.617 427.657">
  <g id="IT-Geräte_neu_" data-name="IT-Geräte (neu)" transform="translate(-92.511 -338.098)" opacity="0.03">
    <g id="Gruppe_43" data-name="Gruppe 43" transform="translate(434.519 338.098)">
      <g id="Gruppe_42" data-name="Gruppe 42" transform="translate(0)">
        <path id="Pfad_13" data-name="Pfad 13" d="M371.534,338.1H294.97A19.591,19.591,0,0,0,275.4,357.664V561.838A19.591,19.591,0,0,0,294.97,581.4h76.565A19.591,19.591,0,0,0,391.1,561.838V357.664A19.591,19.591,0,0,0,371.534,338.1ZM386,561.838A14.478,14.478,0,0,1,371.534,576.3H294.97a14.479,14.479,0,0,1-14.463-14.462V357.664A14.483,14.483,0,0,1,294.97,343.2h24.39v2.126a2.982,2.982,0,0,0,2.979,2.977h21.828a2.98,2.98,0,0,0,2.977-2.977V343.2h24.39A14.482,14.482,0,0,1,386,357.664Z" transform="translate(-275.404 -338.098)" fill="#222"/>
      </g>
    </g>
    <g id="Gruppe_44" data-name="Gruppe 44" transform="translate(92.511 503.957)">
      <path id="Pfad_14" data-name="Pfad 14" d="M549.424,672.061H500.636a25.232,25.232,0,0,0,9.518-19.728V452.038a25.259,25.259,0,0,0-25.245-25.245H160.784a25.271,25.271,0,0,0-25.245,25.245V652.332a25.232,25.232,0,0,0,9.518,19.728H96.251a3.751,3.751,0,0,0-3.74,3.74v3.441a9.377,9.377,0,0,0,9.35,9.35H543.814a9.377,9.377,0,0,0,9.35-9.35V675.8A3.751,3.751,0,0,0,549.424,672.061ZM141.149,652.332V452.038A19.656,19.656,0,0,1,160.784,432.4H484.909a19.656,19.656,0,0,1,19.635,19.635V652.332a19.656,19.656,0,0,1-19.635,19.635H160.784A19.656,19.656,0,0,1,141.149,652.332Z" transform="translate(-92.511 -426.793)" fill="#222"/>
    </g>
    <path id="Pfad_15" data-name="Pfad 15" d="M344.14,575.4l4.151,32.244a2.535,2.535,0,0,0,2.515,2.212h37.587a2.536,2.536,0,0,0,2.513-2.208L395.09,575.4a41.744,41.744,0,0,0-.1-66.3l-4.062-31.577a2.537,2.537,0,0,0-2.515-2.212h-37.57a2.533,2.533,0,0,0-2.513,2.21L344.241,509.1a41.747,41.747,0,0,0-.1,66.3Zm7.039-64.866a36.712,36.712,0,1,1-18.292,31.752A36.4,36.4,0,0,1,351.179,510.535Z" transform="translate(204.713 119.373)" fill="#222"/>
  </g>
</svg>
