<svg xmlns="http://www.w3.org/2000/svg" width="466.579" height="365.357" viewBox="0 0 466.579 365.357">
  <g id="IT-Geräte" transform="translate(-1278.249 -5631.692)" opacity="0.03">
    <path id="Icon_ionic-ios-laptop" data-name="Icon ionic-ios-laptop" d="M340.292,208.428V21.3a13.586,13.586,0,0,0-13.5-13.423H52.375A13.534,13.534,0,0,0,38.874,21.3V208.428H1.118c0,7.771,7.771,14.757,14.835,17.818a104.148,104.148,0,0,0,38.619,7.692H324.593c15.7,0,29.985-3.532,37.913-6.907,7.457-3.14,15.542-10.518,15.542-18.6H340.292ZM189.583,14.155a3.14,3.14,0,1,1-3.14,3.14A3.149,3.149,0,0,1,189.583,14.155ZM53,26.871h273.16a1.574,1.574,0,0,1,1.57,1.57V194.3a1.575,1.575,0,0,1-1.57,1.57H53a1.575,1.575,0,0,1-1.57-1.57V28.441A1.526,1.526,0,0,1,53,26.871ZM222.786,214.708H156.38c-4.082,0-7.614-4.71-7.614-5.887H230.4C230.4,210,228.045,214.708,222.786,214.708Z" transform="translate(1277.131 5763.11)"/>
    <path id="Icon_ionic-ios-phone-portrait" data-name="Icon ionic-ios-phone-portrait" d="M105.108,2.25H26.525a16.3,16.3,0,0,0-16.4,16.3V207.329c0,9.117,7.333,16.9,16.4,16.9h78.533c9.067,0,16-7.779,16-16.9V18.551A15.9,15.9,0,0,0,105.108,2.25Zm-46.922,11.4H73.051a1.982,1.982,0,0,1,0,3.964H58.186a1.982,1.982,0,0,1,0-3.964Zm7.68,203.146a8.621,8.621,0,1,1,8.621-8.621A8.628,8.628,0,0,1,65.866,216.792Zm46.327-24.278H19.044a.994.994,0,0,1-.991-.991V28.51a.994.994,0,0,1,.991-.991h93.15a.994.994,0,0,1,.991.991V191.523A.994.994,0,0,1,112.194,192.514Z" transform="translate(1513.515 5629.442)"/>
    <path id="Icon_ionic-md-watch" data-name="Icon ionic-md-watch" d="M105.213,74.972A48.717,48.717,0,0,0,86.445,36.51L80.6,1.125H31.366L25.518,36.51a48.795,48.795,0,0,0,0,76.924l5.847,35.385H80.6l5.847-35.385A48.722,48.722,0,0,0,105.213,74.972Zm-86.155,0A36.924,36.924,0,1,1,55.982,111.9,37.033,37.033,0,0,1,19.058,74.972Z" transform="translate(1639.615 5769.86)"/>
  </g>
</svg>
