<svg width="28" height="21" viewBox="0 0 28 21" fill="none" xmlns="http://www.w3.org/2000/svg">
<mask id="path-1-inside-1_2450_377" fill="white">
<path fill-rule="evenodd" clip-rule="evenodd" d="M0 1.5C0 0.671573 0.671573 0 1.5 0H26.5C27.3284 0 28 0.671573 28 1.5C28 2.32843 27.3284 3 26.5 3H1.5C0.671572 3 0 2.32843 0 1.5ZM0 10.5C0 9.67157 0.671573 9 1.5 9H26.5C27.3284 9 28 9.67157 28 10.5C28 11.3284 27.3284 12 26.5 12H1.5C0.671572 12 0 11.3284 0 10.5ZM1.5 18C0.671573 18 0 18.6716 0 19.5C0 20.3284 0.671572 21 1.5 21H26.5C27.3284 21 28 20.3284 28 19.5C28 18.6716 27.3284 18 26.5 18H1.5Z"/>
</mask>
<path fill-rule="evenodd" clip-rule="evenodd" d="M0 1.5C0 0.671573 0.671573 0 1.5 0H26.5C27.3284 0 28 0.671573 28 1.5C28 2.32843 27.3284 3 26.5 3H1.5C0.671572 3 0 2.32843 0 1.5ZM0 10.5C0 9.67157 0.671573 9 1.5 9H26.5C27.3284 9 28 9.67157 28 10.5C28 11.3284 27.3284 12 26.5 12H1.5C0.671572 12 0 11.3284 0 10.5ZM1.5 18C0.671573 18 0 18.6716 0 19.5C0 20.3284 0.671572 21 1.5 21H26.5C27.3284 21 28 20.3284 28 19.5C28 18.6716 27.3284 18 26.5 18H1.5Z" fill="#343957"/>
<path d="M1.5 -1C0.119288 -1 -1 0.119288 -1 1.5H1C1 1.22386 1.22386 1 1.5 1V-1ZM26.5 -1H1.5V1H26.5V-1ZM29 1.5C29 0.119289 27.8807 -1 26.5 -1V1C26.7761 1 27 1.22386 27 1.5H29ZM26.5 4C27.8807 4 29 2.88071 29 1.5H27C27 1.77614 26.7761 2 26.5 2V4ZM1.5 4H26.5V2H1.5V4ZM-1 1.5C-1 2.88071 0.119287 4 1.5 4V2C1.22386 2 1 1.77614 1 1.5H-1ZM1.5 8C0.119288 8 -1 9.11929 -1 10.5H1C1 10.2239 1.22386 10 1.5 10V8ZM26.5 8H1.5V10H26.5V8ZM29 10.5C29 9.11929 27.8807 8 26.5 8V10C26.7761 10 27 10.2239 27 10.5H29ZM26.5 13C27.8807 13 29 11.8807 29 10.5H27C27 10.7761 26.7761 11 26.5 11V13ZM1.5 13H26.5V11H1.5V13ZM-1 10.5C-1 11.8807 0.119287 13 1.5 13V11C1.22386 11 1 10.7761 1 10.5H-1ZM1 19.5C1 19.2239 1.22386 19 1.5 19V17C0.119288 17 -1 18.1193 -1 19.5H1ZM1.5 20C1.22386 20 1 19.7761 1 19.5H-1C-1 20.8807 0.119287 22 1.5 22V20ZM26.5 20H1.5V22H26.5V20ZM27 19.5C27 19.7761 26.7761 20 26.5 20V22C27.8807 22 29 20.8807 29 19.5H27ZM26.5 19C26.7761 19 27 19.2239 27 19.5H29C29 18.1193 27.8807 17 26.5 17V19ZM1.5 19H26.5V17H1.5V19Z" fill="#343957" mask="url(#path-1-inside-1_2450_377)"/>
</svg>
