<?xml version="1.0" encoding="UTF-8"?>
<svg id="Ebene_2" data-name="Ebene 2" xmlns="http://www.w3.org/2000/svg" viewBox="0 0 293.33 162.78">
  <defs>
    <style>
      .cls-1, .cls-2 {
        fill: #0fa9e0;
      }

      .cls-3 {
        opacity: .6;
      }

      .cls-4 {
        fill: none;
        stroke: #1d2d50;
        stroke-miterlimit: 10;
        stroke-width: 3px;
      }

      .cls-2, .cls-5 {
        opacity: .8;
      }

      .cls-5 {
        fill: #1d2d50;
      }
    </style>
  </defs>
  <g id="Rad_blau" data-name="Rad blau">
    <circle class="cls-5" cx="66" cy="105.61" r="54"/>
    <circle class="cls-5" cx="239.33" cy="108.78" r="54"/>
    <circle class="cls-2" cx="54" cy="93.61" r="54"/>
    <circle class="cls-2" cx="227.33" cy="96.65" r="54"/>
    <path class="cls-4" d="M58,100.34L104.67,24.39m94.83,.69H103.5M94.08,1.97l39.84,87.29M84.17,1.5l32.58,.32m115.97,99.46L198.14,24.2m-63.68,63.17l71.37-46.05m-80.93,61.45h16M190,11.45l33.11,.22m10.22,14.44c0-7.98-4.63-14.44-10.34-14.44m-3.93,27.33c7.89,0,14.28-5.76,14.28-12.89M60,45.61c-29.82,0-54,24.18-54,54s24.18,54,54,54,54-24.18,54-54-24.18-54-54-54Zm173.39,3.17c-29.82,0-54,24.18-54,54s24.18,54,54,54,54-24.18,54-54-24.18-54-54-54Z"/>
    <g class="cls-3">
      <circle class="cls-1" cx="13.38" cy="106.28" r="3.34"/>
      <circle class="cls-1" cx="24.23" cy="117.13" r="3.34"/>
      <circle class="cls-1" cx="35.21" cy="106.28" r="3.34"/>
      <circle class="cls-1" cx="35.21" cy="84.59" r="3.34"/>
      <circle class="cls-1" cx="24.37" cy="95.44" r="3.34"/>
      <circle class="cls-1" cx="59.54" cy="84.32" r="3.34"/>
      <circle class="cls-1" cx="59.54" cy="62.63" r="3.34"/>
      <circle class="cls-1" cx="48.69" cy="73.47" r="3.34"/>
      <circle class="cls-1" cx="70.38" cy="73.47" r="3.34"/>
      <circle class="cls-1" cx="81.23" cy="62.63" r="3.34"/>
      <circle class="cls-1" cx="70.38" cy="51.78" r="3.34"/>
      <circle class="cls-1" cx="13.24" cy="84.45" r="3.34"/>
      <circle class="cls-1" cx="24.09" cy="73.61" r="3.34"/>
      <circle class="cls-1" cx="37.57" cy="62.49" r="3.34"/>
      <circle class="cls-1" cx="48.42" cy="51.65" r="3.34"/>
      <circle class="cls-1" cx="46.05" cy="95.44" r="3.34"/>
    </g>
    <g class="cls-3">
      <circle class="cls-1" cx="186.54" cy="109.83" r="3.34"/>
      <circle class="cls-1" cx="197.39" cy="120.67" r="3.34"/>
      <circle class="cls-1" cx="208.37" cy="109.83" r="3.34"/>
      <circle class="cls-1" cx="208.37" cy="88.14" r="3.34"/>
      <circle class="cls-1" cx="197.53" cy="98.98" r="3.34"/>
      <circle class="cls-1" cx="232.7" cy="87.86" r="3.34"/>
      <circle class="cls-1" cx="232.7" cy="66.17" r="3.34"/>
      <circle class="cls-1" cx="221.86" cy="77.02" r="3.34"/>
      <circle class="cls-1" cx="243.54" cy="77.02" r="3.34"/>
      <circle class="cls-1" cx="254.39" cy="66.17" r="3.34"/>
      <circle class="cls-1" cx="243.54" cy="55.33" r="3.34"/>
      <circle class="cls-1" cx="186.41" cy="88" r="3.34"/>
      <circle class="cls-1" cx="197.25" cy="77.16" r="3.34"/>
      <circle class="cls-1" cx="210.73" cy="66.03" r="3.34"/>
      <circle class="cls-1" cx="221.58" cy="55.19" r="3.34"/>
      <circle class="cls-1" cx="219.21" cy="98.98" r="3.34"/>
    </g>
  </g>
</svg>