<?xml version="1.0" encoding="UTF-8"?>
<svg id="Ebene_2" data-name="Ebene 2" xmlns="http://www.w3.org/2000/svg" viewBox="0 0 98.94 159.24">
  <defs>
    <style>
      .cls-1 {
        fill: #2d2d2d;
      }
    </style>
  </defs>
  <g id="Watch_grau" data-name="Watch grau">
    <path class="cls-1" d="M19.32,118.46l4.91,38.16c.19,1.5,1.47,2.62,2.98,2.62h44.48c1.51,0,2.78-1.12,2.98-2.61l4.95-38.17c11.74-9.04,19.32-23.25,19.32-39.19s-7.63-30.24-19.44-39.28L74.69,2.62c-.19-1.5-1.47-2.62-2.98-2.62H27.25c-1.51,0-2.78,1.12-2.98,2.62l-4.84,37.37C7.63,49.03,0,63.27,0,79.27s7.58,30.15,19.32,39.19ZM27.65,41.69c6.41-3.75,13.87-5.89,21.82-5.89s15.41,2.14,21.82,5.89c12.94,7.53,21.65,21.56,21.65,37.58s-9.39,31.11-23.15,38.42c-6.06,3.22-12.98,5.05-20.32,5.05s-14.26-1.83-20.32-5.05c-13.76-7.31-23.15-21.79-23.15-38.42s8.71-30.05,21.65-37.58Z"/>
  </g>
</svg>