<svg xmlns="http://www.w3.org/2000/svg" width="124.437" height="108.883" viewBox="0 0 124.437 108.883">
  <path id="Icon_awesome-quote-left" data-name="Icon awesome-quote-left" d="M112.771,56.691H93.328V41.137a15.569,15.569,0,0,1,15.555-15.555h1.944a5.819,5.819,0,0,0,5.833-5.833V8.083a5.819,5.819,0,0,0-5.833-5.833h-1.944A38.876,38.876,0,0,0,70,41.137v58.33a11.669,11.669,0,0,0,11.666,11.666h31.109a11.669,11.669,0,0,0,11.666-11.666V68.357A11.669,11.669,0,0,0,112.771,56.691Zm-70,0H23.332V41.137A15.569,15.569,0,0,1,38.887,25.582h1.944a5.819,5.819,0,0,0,5.833-5.833V8.083A5.819,5.819,0,0,0,40.831,2.25H38.887A38.876,38.876,0,0,0,0,41.137v58.33a11.669,11.669,0,0,0,11.666,11.666H42.775A11.669,11.669,0,0,0,54.441,99.467V68.357A11.669,11.669,0,0,0,42.775,56.691Z" transform="translate(0 -2.25)" fill="#4a4a4a" opacity="0.26"/>
</svg>
