<svg xmlns="http://www.w3.org/2000/svg" width="19.713" height="27.704" viewBox="0 0 19.713 27.704">
  <path id="Icon_ionic-ios-calculator" data-name="Icon ionic-ios-calculator" d="M25.175,3.375H9.725A2.129,2.129,0,0,0,7.594,5.506V28.948a2.129,2.129,0,0,0,2.131,2.131h15.45a2.129,2.129,0,0,0,2.131-2.131V5.506A2.129,2.129,0,0,0,25.175,3.375Zm-.8,18.114v5.328a1.594,1.594,0,0,1-1.6,1.6h0a1.594,1.594,0,0,1-1.6-1.6V21.489a1.594,1.594,0,0,1,1.6-1.6h0A1.594,1.594,0,0,1,24.376,21.489Zm0-5.328h0a1.594,1.594,0,0,1-1.6,1.6h0a1.594,1.594,0,0,1-1.6-1.6h0a1.594,1.594,0,0,1,1.6-1.6h0A1.594,1.594,0,0,1,24.376,16.162ZM19.048,26.817h0a1.594,1.594,0,0,1-1.6,1.6h0a1.594,1.594,0,0,1-1.6-1.6h0a1.594,1.594,0,0,1,1.6-1.6h0A1.594,1.594,0,0,1,19.048,26.817Zm0-5.328h0a1.594,1.594,0,0,1-1.6,1.6h0a1.594,1.594,0,0,1-1.6-1.6h0a1.594,1.594,0,0,1,1.6-1.6h0A1.594,1.594,0,0,1,19.048,21.489Zm0-5.328h0a1.594,1.594,0,0,1-1.6,1.6h0a1.594,1.594,0,0,1-1.6-1.6h0a1.594,1.594,0,0,1,1.6-1.6h0A1.594,1.594,0,0,1,19.048,16.162ZM13.721,26.817h0a1.594,1.594,0,0,1-1.6,1.6h0a1.594,1.594,0,0,1-1.6-1.6h0a1.594,1.594,0,0,1,1.6-1.6h0A1.594,1.594,0,0,1,13.721,26.817Zm0-5.328h0a1.594,1.594,0,0,1-1.6,1.6h0a1.594,1.594,0,0,1-1.6-1.6h0a1.594,1.594,0,0,1,1.6-1.6h0A1.594,1.594,0,0,1,13.721,21.489Zm0-5.328h0a1.594,1.594,0,0,1-1.6,1.6h0a1.594,1.594,0,0,1-1.6-1.6h0a1.594,1.594,0,0,1,1.6-1.6h0A1.594,1.594,0,0,1,13.721,16.162Zm-3.2-5.328v-3.2A1.069,1.069,0,0,1,11.59,6.572H23.311a1.069,1.069,0,0,1,1.066,1.066v3.2A1.069,1.069,0,0,1,23.311,11.9H11.59A1.069,1.069,0,0,1,10.524,10.834Z" transform="translate(-7.594 -3.375)" fill="#fff"/>
</svg>
