<svg xmlns="http://www.w3.org/2000/svg" width="40" height="40" viewBox="0 0 40 40">
  <path id="Icon_ionic-ios-checkmark-circle" data-name="Icon ionic-ios-checkmark-circle" d="M23.375,3.375a20,20,0,1,0,20,20A20,20,0,0,0,23.375,3.375Zm10.24,14.471L26.993,24.5,20.76,30.76h-.01a1.736,1.736,0,0,1-1.115.529,1.683,1.683,0,0,1-1.125-.548l-5.385-5.385a.383.383,0,0,1,0-.548L14.837,23.1a.372.372,0,0,1,.538,0l4.269,4.269L31.375,15.548a.38.38,0,0,1,.269-.115h0a.349.349,0,0,1,.269.115l1.683,1.74A.379.379,0,0,1,33.615,17.846Z" transform="translate(-3.375 -3.375)" fill="#00aeea"/>
</svg>
