<?xml version="1.0" encoding="UTF-8" standalone="no"?>
<svg
   version="1.1"
   id="Layer_1"
   x="0px"
   y="0px"
   viewBox="0 0 122.88 101.91"
   style="enable-background:new 0 0 122.88 101.91"
   xml:space="preserve"
   sodipodi:docname="desktop.svg"
   inkscape:version="1.1 (c4e8f9e, 2021-05-24)"
   xmlns:inkscape="http://www.inkscape.org/namespaces/inkscape"
   xmlns:sodipodi="http://sodipodi.sourceforge.net/DTD/sodipodi-0.dtd"
   xmlns="http://www.w3.org/2000/svg"
   xmlns:svg="http://www.w3.org/2000/svg"><defs
     id="defs1209" /><sodipodi:namedview
     id="namedview1207"
     pagecolor="#ffffff"
     bordercolor="#666666"
     borderopacity="1.0"
     inkscape:pageshadow="2"
     inkscape:pageopacity="0.0"
     inkscape:pagecheckerboard="0"
     showgrid="false"
     inkscape:zoom="2.9294343"
     inkscape:cx="58.543727"
     inkscape:cy="51.033744"
     inkscape:window-width="1296"
     inkscape:window-height="817"
     inkscape:window-x="0"
     inkscape:window-y="23"
     inkscape:window-maximized="0"
     inkscape:current-layer="Layer_1" /><style
     type="text/css"
     id="style1200">.st0{fill-rule:evenodd;clip-rule:evenodd;}</style><g
     id="g1204"><path
       style="color:#000000;clip-rule:evenodd;fill:#000000;fill-rule:evenodd;-inkscape-stroke:none"
       d="m 3.34,0 h 116.2 c 1.84,0 3.34,1.5 3.34,3.34 v 76.98 c 0,1.84 -1.5,3.34 -3.34,3.34 H 3.34 C 1.5,83.66 0,82.16 0,80.32 V 3.34 C 0,1.5 1.5,0 3.34,0 v 0 z m 42.95,88.27 h 30.3 c 0.08,5.24 2.24,9.94 8.09,13.63 H 38.2 c 4.68,-3.39 8.11,-7.51 8.09,-13.63 v 0 z M 61.44,72.41 c 2.37,0 4.29,1.92 4.29,4.29 0,2.37 -1.92,4.29 -4.29,4.29 -2.37,0 -4.29,-1.92 -4.29,-4.29 0,-2.37 1.92,-4.29 4.29,-4.29 z M 10.05,6.29 h 102.79 c 1.63,0 2.95,1.33 2.95,2.95 v 57.52 c 0,1.62 -1.33,2.95 -2.95,2.95 H 10.05 C 8.43,69.71 7.1,68.38 7.1,66.76 V 9.24 C 7.09,7.62 8.42,6.29 10.05,6.29 v 0 z"
       id="path1202" /></g></svg>
