<!-- Generated by IcoMoon.io -->
<svg version="1.1" xmlns="http://www.w3.org/2000/svg" width="1235" height="1024" viewBox="0 0 1235 1024">
<title></title>
<g id="icomoon-ignore">
</g>
<path fill="#000" d="M33.561 0v0c-18.488 0-33.561 15.072-33.561 33.561v773.501c0 18.488 15.072 33.561 33.561 33.561h1167.587c18.488 0 33.561-15.072 33.561-33.561v-773.501c0-18.488-15.072-33.561-33.561-33.561h-1167.587zM465.126 886.944v0c0.201 61.494-34.264 102.892-81.289 136.955h467.035c-58.781-37.077-80.485-84.303-81.289-136.955h-304.457zM617.354 727.582c23.814 0 43.106 19.292 43.106 43.106s-19.292 43.106-43.106 43.106c-23.814 0-43.106-19.292-43.106-43.106s19.292-43.106 43.106-43.106zM100.983 63.202h1032.842c16.378 0 29.642 13.364 29.642 29.642v577.966c0 16.278-13.364 29.642-29.642 29.642h-1032.842c-16.278 0-29.642-13.364-29.642-29.642v-577.966c-0.1-16.278 13.263-29.642 29.642-29.642v0z"></path>
</svg>
