<?xml version="1.0" encoding="UTF-8"?>
<svg id="Ebene_2" data-name="Ebene 2" xmlns="http://www.w3.org/2000/svg" viewBox="0 0 93.19 68.15">
  <defs>
    <style>
      .cls-1 {
        fill: #fff;
      }

      .cls-2 {
        fill: #00a9e0;
      }
    </style>
  </defs>
  <g id="Ebene_1-2" data-name="Ebene 1">
    <g>
      <path class="cls-2" d="M73.65,29.07c-.87,0-1.72,.06-2.55,.17l13.65-21.57,4.85-7.67H46.7l-1.47,2.32-7.09,11.22C35.6,5.69,28.22,0,19.54,0,8.77,0,0,8.76,0,19.54s8.77,19.54,19.54,19.54c.87,0,1.72-.06,2.56-.17l-13.65,21.57-4.85,7.67H46.48l1.47-2.33,7.09-11.22c2.54,7.85,9.92,13.55,18.6,13.55,10.78,0,19.54-8.77,19.54-19.54s-8.76-19.54-19.54-19.54"/>
      <path class="cls-1" d="M34.08,19.54c0-8.03-6.51-14.54-14.54-14.54S5,11.51,5,19.54s6.51,14.54,14.54,14.54,14.54-6.51,14.54-14.54m15.38-14.54L12.67,63.15h31.06L80.51,5h-31.05Zm24.19,29.08c-8.03,0-14.54,6.51-14.54,14.54s6.51,14.54,14.54,14.54,14.54-6.51,14.54-14.54-6.51-14.54-14.54-14.54"/>
    </g>
  </g>
</svg>