<?xml version="1.0" encoding="UTF-8" standalone="no"?>
<svg
   width="20px"
   height="20px"
   viewBox="0 0 20 20"
   version="1.1"
   id="svg1149"
   sodipodi:docname="safety.svg"
   inkscape:version="1.1 (c4e8f9e, 2021-05-24)"
   xmlns:inkscape="http://www.inkscape.org/namespaces/inkscape"
   xmlns:sodipodi="http://sodipodi.sourceforge.net/DTD/sodipodi-0.dtd"
   xmlns="http://www.w3.org/2000/svg"
   xmlns:svg="http://www.w3.org/2000/svg">
  <defs
     id="defs1153" />
  <sodipodi:namedview
     id="namedview1151"
     pagecolor="#ffffff"
     bordercolor="#666666"
     borderopacity="1.0"
     inkscape:pageshadow="2"
     inkscape:pageopacity="0.0"
     inkscape:pagecheckerboard="0"
     showgrid="false"
     inkscape:zoom="16.362861"
     inkscape:cx="10.664394"
     inkscape:cy="10.419938"
     inkscape:window-width="1296"
     inkscape:window-height="817"
     inkscape:window-x="0"
     inkscape:window-y="23"
     inkscape:window-maximized="0"
     inkscape:current-layer="svg1149" />
  <path
     style="color:#000000;fill:#555555;-inkscape-stroke:none"
     d="m 2.8421053,3.8650404 v 7.4337646 c 0,4.046768 3.2046986,7.327322 7.1578947,7.327322 3.953196,0 7.157895,-3.280554 7.157895,-7.327322 V 3.8683736 L 9.9567671,1.4468576 Z M 9.9545149,0 18.5,2.8735818 V 11.298805 C 18.5,16.104343 14.69442,20 10,20 5.3055796,20 1.5,16.104343 1.5,11.298805 V 2.8735818 Z M 14.373701,6.4854447 C 14.096748,6.2333426 13.67259,6.2588025 13.426317,6.5423111 v 0 L 9.1104778,11.510692 6.3221137,8.4258739 C 6.0704094,8.1474088 5.6458418,8.1305447 5.3738156,8.3882069 5.1017894,8.6458691 5.0853152,9.0804861 5.3370196,9.3589512 v 0 l 3.2907925,3.6406638 c 0.2692113,0.297833 0.7306131,0.29316 0.994015,-0.01007 v 0 L 14.429253,7.4552537 c 0.246273,-0.2835085 0.221402,-0.7177068 -0.05555,-0.969809 z"
     id="path1147" />
</svg>
