<!-- Generated by IcoMoon.io -->
<svg version="1.1" xmlns="http://www.w3.org/2000/svg" width="932" height="1024" viewBox="0 0 932 1024">
<title></title>
<g id="icomoon-ignore">
</g>
<path fill="#000" d="M464.275 0v0c-150.325 116.783-305.458 150.967-463.583 142.692-13.192 502.633 164.675 771.542 465.383 881.308 311.392-117.275 487.108-398.275 463.583-874.092-134.7 12.317-291.65-39.783-465.383-149.908zM281.533 556.458l113.050 97.125c9.658 8.267 24.083 7.308 32.583-2.033l225.183-247.55c8.717-9.592 8.017-24.433-1.558-33.15-9.592-8.717-24.433-8.017-33.158 1.567l-209.833 230.7-95.783-82.292c-9.833-8.408-24.633-7.267-33.058 2.575-8.408 9.842-7.258 24.642 2.575 33.058zM464.458 58.792c153.783 97.475 292.717 143.6 411.95 132.692 20.817 421.175-134.717 669.917-410.342 773.717-266.183-97.158-423.642-335.175-411.958-780.108 139.975 7.333 277.292-22.925 410.35-126.3v0z"></path>
</svg>
