<svg xmlns="http://www.w3.org/2000/svg" width="592.929" height="329.997" viewBox="0 0 592.929 329.997"><path data-name="Pfad 12" d="M477.22 329.997a115.7 115.7 0 01-50.2-219.954l-8.648-19.277-145.71 94.007v.008l-5.69 2.6-58.967-129.2-31.419 51.13a115.153 115.153 0 11-5.4-3.157l33.692-54.829-20.486-44.889-18.326-.181.06-6.255 67.934.669-.06 6.255-42.7-.421 19.472 42.67h195.8l26.153 58.3a115.71 115.71 0 1144.5 222.523zm-47.636-214.246a108.728 108.728 0 105.7-2.569l43.389 96.708-5.706 2.56zm-313.87-17.532a109.53 109.53 0 1057.6 16.419l-59.109 96.191-5.329-3.273 59.038-96.068a108.755 108.755 0 00-52.2-13.269zm97.919-42.788l56.409 123.6 145.74-94.038-13.262-29.562zm70.728 161.984h-33.363v-6.255h33.358zm162.968-132.97V78.19c14.69 0 26.643-10.652 26.643-23.743 0-14.882-8.273-26.989-18.439-26.989l-68.8-.461.042-6.255 69.033.465c13.491.2 24.42 15.034 24.42 33.242-.006 16.54-14.763 29.995-32.903 29.995z" fill="#222" opacity=".03"/></svg>