<svg xmlns="http://www.w3.org/2000/svg" width="449.408" height="631.6" viewBox="0 0 449.408 631.6"><path data-name="Icon ionic-ios-calculator" d="M400.823 0H48.584A48.532 48.532 0 000 48.585v534.431a48.532 48.532 0 0048.585 48.585h352.238a48.533 48.533 0 0048.583-48.585V48.585A48.533 48.533 0 00400.823 0zm-18.217 412.969v121.462a36.351 36.351 0 01-36.438 36.438 36.351 36.351 0 01-36.439-36.438V412.969a36.351 36.351 0 0136.439-36.438 36.351 36.351 0 0136.438 36.438zm0-121.462a36.351 36.351 0 01-36.438 36.438 36.351 36.351 0 01-36.439-36.438 36.351 36.351 0 0136.439-36.438 36.351 36.351 0 0136.438 36.439zM261.142 534.431a36.351 36.351 0 01-36.436 36.438 36.351 36.351 0 01-36.438-36.438 36.351 36.351 0 0136.438-36.439 36.351 36.351 0 0136.436 36.439zm0-121.462a36.351 36.351 0 01-36.436 36.439 36.351 36.351 0 01-36.438-36.439 36.351 36.351 0 0136.438-36.438 36.351 36.351 0 0136.436 36.438zm0-121.462a36.351 36.351 0 01-36.436 36.439 36.351 36.351 0 01-36.438-36.438 36.351 36.351 0 0136.438-36.439 36.351 36.351 0 0136.436 36.439zM139.681 534.431a36.351 36.351 0 01-36.438 36.438 36.351 36.351 0 01-36.437-36.438 36.351 36.351 0 0136.438-36.439 36.351 36.351 0 0136.437 36.439zm0-121.462a36.351 36.351 0 01-36.438 36.439 36.351 36.351 0 01-36.437-36.439 36.351 36.351 0 0136.438-36.438 36.351 36.351 0 0136.437 36.438zm0-121.462a36.351 36.351 0 01-36.438 36.438 36.351 36.351 0 01-36.437-36.437 36.351 36.351 0 0136.438-36.438 36.351 36.351 0 0136.437 36.438zM66.806 170.046V97.169a24.364 24.364 0 0124.29-24.292h267.215a24.364 24.364 0 0124.295 24.292v72.877a24.364 24.364 0 01-24.292 24.292H91.096a24.364 24.364 0 01-24.29-24.292z" fill="#00aeea" opacity=".05"/></svg>