<svg viewBox="0 0 256 256" xmlns="http://www.w3.org/2000/svg"><path d="M129.6 121.6c-13.6-4.8-22-8.4-23.3-18.1-1-7.1 4.4-14.7 11.8-16.9 7.8-2.3 18.3-1.4 28.2 2.6 2.5 1 5.4-.2 6.5-2.8 1-2.6-.2-5.4-2.8-6.5-5.8-2.3-11.7-3.7-17.4-4.2v-10c0-2.7-2.2-5-5-5-2.7 0-5 2.2-5 5v10c-2.5.3-5 .7-7.3 1.4-12.2 3.6-20.5 15.8-18.9 27.7 2.2 16.5 16.9 21.6 29.9 26.2 7.1 2.5 13.9 4.9 17.9 8.7 3.6 3.4 5.6 7.8 5.5 12.4-.1 4.5-2.1 8.8-5.8 12.1-4.1 3.7-9.5 5.7-16.6 6.2-5.3.2-11.5-.3-18.9-1.7-1.9-.4-3.7-.7-5.4-1.2-2.7-.8-5.4.7-6.2 3.3-.8 2.6.7 5.4 3.3 6.2 2.2.7 4.3 1.1 6.4 1.5 6 1.1 11.2 1.7 16 1.8v9.8c0 2.7 2.2 5 5 5 2.7 0 5-2.2 5-5v-10.4c7.3-1.2 13.3-3.8 18.1-8.1 5.8-5.2 9-12.1 9.1-19.4.1-7.4-3-14.4-8.6-19.7-5.5-5.3-13.6-8.1-21.5-10.9z"/><path d="M130 32.6c-25.6-.6-49.6 8.9-67.9 26.5-18.3 17.6-29 41.9-29.4 66.8-.9 52.7 40.9 96.4 93.2 97.5h2c25.2 0 49-9.8 67.1-27.8 18.3-18.2 28.6-42.7 28.3-67.1.5-51.8-41.3-94.8-93.3-95.9zm58 155.9c-16.6 16.5-38.6 25.4-61.9 24.9-46.8-1-84.2-40.2-83.4-87.4.4-22.2 10-44 26.3-59.8 16-15.3 36.9-23.7 59-23.7h1.9c46.5 1 83.9 39.5 83.5 86 .3 21.8-9 43.7-25.4 60z"/><path d="M214.1 39C189.5 15.2 156.8 2.9 122 4.5 57.3 7.3 5.5 60.8 4.2 126.3c-.2 34.1 12.8 66 36.5 89.6 23.2 23.1 54.1 35.8 87.1 35.8h1.3c68.2-.7 122.1-54.6 122.7-122.7.3-34.3-13.1-66.3-37.7-90zM129 241.7c-30.9.4-59.7-11.4-81.2-32.9C26 187 14 157.7 14.2 126.4 15.4 66.3 63 17.1 122.5 14.4c32-1.4 62.1 9.8 84.8 31.7 22.6 21.8 34.9 51.2 34.6 82.7-.6 62.7-50.2 112.3-112.9 112.9z"/></svg>