<svg xmlns="http://www.w3.org/2000/svg" width="507.159" height="439.537" viewBox="0 0 507.159 439.537"><path data-name="Icon metro-directions-bike" d="M338.106 76.074a38.037 38.037 0 10-38.037-38.037 38.081 38.081 0 0038.037 38.037zm63.395 152.148a105.658 105.658 0 10105.657 105.657A105.7 105.7 0 00401.5 228.222zm0 179.619a73.96 73.96 0 1173.96-73.96A73.906 73.906 0 01401.5 407.84zm-88.753-221.883h88.753v-38.036h-67.622L292.99 78.927a35.865 35.865 0 00-30.961-17.645 35.424 35.424 0 00-25.355 10.565l-78.187 78.081a35.853 35.853 0 00-10.566 25.459c0 13.313 7.079 24.513 17.962 31.063l70.791 42.9v105.66h38.037V218.077l-47.546-35.29 49.025-49.236 36.558 52.406zm-207.09 42.263a105.658 105.658 0 10105.658 105.658 105.7 105.7 0 00-105.658-105.657zm0 179.619a73.96 73.96 0 1173.961-73.96 73.906 73.906 0 01-73.961 73.96z" opacity=".03"/></svg>