<svg xmlns="http://www.w3.org/2000/svg" width="466.579" height="365.357" viewBox="0 0 466.579 365.357"><g opacity=".03"><path data-name="Icon ionic-ios-laptop" d="M339.174 339.846V152.718a13.586 13.586 0 00-13.5-13.423H51.257a13.534 13.534 0 00-13.501 13.423v187.128H0c0 7.771 7.771 14.757 14.835 17.818a104.148 104.148 0 0038.619 7.692h270.021c15.7 0 29.985-3.532 37.913-6.907 7.457-3.14 15.542-10.518 15.542-18.6h-37.756zM188.465 145.573a3.14 3.14 0 11-3.14 3.14 3.149 3.149 0 013.14-3.14zM51.882 158.289h273.16a1.574 1.574 0 011.57 1.57v165.859a1.575 1.575 0 01-1.57 1.57H51.882a1.575 1.575 0 01-1.57-1.57V159.859a1.526 1.526 0 011.57-1.57zm169.786 187.837h-66.406c-4.082 0-7.614-4.71-7.614-5.887h81.634c0 1.179-2.355 5.887-7.614 5.887z"/><path data-name="Icon ionic-ios-phone-portrait" d="M340.374 0h-78.583a16.3 16.3 0 00-16.4 16.3v188.779c0 9.117 7.333 16.9 16.4 16.9h78.533c9.067 0 16-7.779 16-16.9V16.301A15.9 15.9 0 00340.374 0zm-46.922 11.4h14.865a1.982 1.982 0 010 3.964h-14.865a1.982 1.982 0 010-3.964zm7.68 203.146a8.621 8.621 0 118.621-8.621 8.628 8.628 0 01-8.621 8.617zm46.327-24.278H254.31a.994.994 0 01-.991-.991V26.26a.994.994 0 01.991-.991h93.15a.994.994 0 01.991.991v163.013a.994.994 0 01-.991.991z"/><path data-name="Icon ionic-md-watch" d="M466.579 213.14a48.717 48.717 0 00-18.768-38.462l-5.845-35.385h-49.234l-5.848 35.385a48.795 48.795 0 000 76.924l5.847 35.385h49.235l5.847-35.385a48.722 48.722 0 0018.766-38.462zm-86.155 0a36.924 36.924 0 1136.924 36.928 37.033 37.033 0 01-36.924-36.928z"/></g></svg>