<svg xmlns="http://www.w3.org/2000/svg" width="523.617" height="427.657" viewBox="0 0 523.617 427.657"><g data-name="IT-Geräte (neu)" opacity=".03"><g data-name="Gruppe 43"><g data-name="Gruppe 42"><path data-name="Pfad 13" d="M438.138.002h-76.564a19.591 19.591 0 00-19.57 19.564V223.74a19.591 19.591 0 0019.57 19.562h76.565a19.591 19.591 0 0019.565-19.562V19.566A19.591 19.591 0 00438.138.002zm14.466 223.738a14.478 14.478 0 01-14.466 14.462h-76.564a14.479 14.479 0 01-14.463-14.462V19.566a14.483 14.483 0 0114.463-14.464h24.39v2.126a2.982 2.982 0 002.979 2.977h21.828a2.98 2.98 0 002.977-2.977V5.102h24.39a14.482 14.482 0 0114.466 14.464z" fill="#222"/></g></g><g data-name="Gruppe 44"><path data-name="Pfad 14" d="M456.913 411.127h-48.788a25.232 25.232 0 009.518-19.728V191.104a25.259 25.259 0 00-25.245-25.245H68.273a25.271 25.271 0 00-25.245 25.245v200.294a25.232 25.232 0 009.518 19.728H3.74a3.751 3.751 0 00-3.74 3.74v3.441a9.377 9.377 0 009.35 9.35h441.953a9.377 9.377 0 009.35-9.35v-3.441a3.751 3.751 0 00-3.74-3.739zM48.638 391.398V191.104a19.656 19.656 0 0119.635-19.638h324.125a19.656 19.656 0 0119.635 19.635v200.297a19.656 19.656 0 01-19.635 19.635H68.273a19.656 19.656 0 01-19.635-19.635z" fill="#222"/></g><path data-name="Pfad 15" d="M456.342 356.675l4.151 32.244a2.535 2.535 0 002.515 2.212h37.587a2.536 2.536 0 002.513-2.208l4.184-32.248a41.744 41.744 0 00-.1-66.3l-4.062-31.577a2.537 2.537 0 00-2.515-2.212h-37.57a2.533 2.533 0 00-2.513 2.21l-4.089 31.579a41.747 41.747 0 00-.1 66.3zm7.039-64.866a36.712 36.712 0 11-18.292 31.752 36.4 36.4 0 0118.292-31.751z" fill="#222"/></g></svg>