<svg data-name="Ebene 2" xmlns="http://www.w3.org/2000/svg" viewBox="0 0 246.34 140"><path d="M244.34 131.16h-26.09c3.1-2.48 5.09-6.29 5.09-10.55V13.5c0-7.45-6.05-13.5-13.5-13.5H36.51c-7.44 0-13.5 6.05-13.5 13.5v107.11c0 4.26 1.99 8.07 5.09 10.55H2c-1.1 0-2 .9-2 2V135c0 2.75 2.25 5 5 5h236.34c2.75 0 5-2.25 5-5v-1.84c0-1.1-.9-2-2-2zM26.01 120.61V13.5c0-5.79 4.71-10.5 10.5-10.5h173.33c5.79 0 10.5 4.71 10.5 10.5v107.11c0 5.79-4.71 10.5-10.5 10.5H36.51c-5.79 0-10.5-4.71-10.5-10.5z" fill="#2d2d2d" data-name="Notebook grau"/></svg>