<svg width="28" height="21" viewBox="0 0 28 21" fill="none" xmlns="http://www.w3.org/2000/svg"><mask id="a" fill="#fff"><path fill-rule="evenodd" clip-rule="evenodd" d="M0 1.5A1.5 1.5 0 011.5 0h25a1.5 1.5 0 010 3h-25A1.5 1.5 0 010 1.5zm0 9A1.5 1.5 0 011.5 9h25a1.5 1.5 0 010 3h-25A1.5 1.5 0 010 10.5zM1.5 18a1.5 1.5 0 000 3h25a1.5 1.5 0 000-3h-25z"/></mask><path fill-rule="evenodd" clip-rule="evenodd" d="M0 1.5A1.5 1.5 0 011.5 0h25a1.5 1.5 0 010 3h-25A1.5 1.5 0 010 1.5zm0 9A1.5 1.5 0 011.5 9h25a1.5 1.5 0 010 3h-25A1.5 1.5 0 010 10.5zM1.5 18a1.5 1.5 0 000 3h25a1.5 1.5 0 000-3h-25z" fill="#343957"/><path d="M1.5-1A2.5 2.5 0 00-1 1.5h2a.5.5 0 01.5-.5v-2zm25 0h-25v2h25v-2zM29 1.5A2.5 2.5 0 0026.5-1v2a.5.5 0 01.5.5h2zM26.5 4A2.5 2.5 0 0029 1.5h-2a.5.5 0 01-.5.5v2zm-25 0h25V2h-25v2zM-1 1.5A2.5 2.5 0 001.5 4V2a.5.5 0 01-.5-.5h-2zM1.5 8A2.5 2.5 0 00-1 10.5h2a.5.5 0 01.5-.5V8zm25 0h-25v2h25V8zm2.5 2.5A2.5 2.5 0 0026.5 8v2a.5.5 0 01.5.5h2zM26.5 13a2.5 2.5 0 002.5-2.5h-2a.5.5 0 01-.5.5v2zm-25 0h25v-2h-25v2zM-1 10.5A2.5 2.5 0 001.5 13v-2a.5.5 0 01-.5-.5h-2zm2 9a.5.5 0 01.5-.5v-2A2.5 2.5 0 00-1 19.5h2zm.5.5a.5.5 0 01-.5-.5h-2A2.5 2.5 0 001.5 22v-2zm25 0h-25v2h25v-2zm.5-.5a.5.5 0 01-.5.5v2a2.5 2.5 0 002.5-2.5h-2zm-.5-.5a.5.5 0 01.5.5h2a2.5 2.5 0 00-2.5-2.5v2zm-25 0h25v-2h-25v2z" fill="#343957" mask="url(#a)"/></svg>