<svg height="60" viewBox="0 0 52 60" width="52" xmlns="http://www.w3.org/2000/svg"><path d="M33 42a1 1 0 110 2H19a1 1 0 010-2h14zm6-4H19a1 1 0 010-2h20a1 1 0 110 2zm2-6H19a1 1 0 010-2h22a1 1 0 110 2zm-23-7a1 1 0 011-1h18a1 1 0 110 2H19a1 1 0 01-1-1zm0-6a1 1 0 011-1h20a1 1 0 110 2H19a1 1 0 01-1-1zm-4 24a1 1 0 01-1 1h-2a1 1 0 010-2h2a1 1 0 011 1zm0-6a1 1 0 01-1 1h-2a1 1 0 010-2h2a1 1 0 011 1zm0-6a1 1 0 01-1 1h-2a1 1 0 010-2h2a1 1 0 011 1zm0-6a1 1 0 01-1 1h-2a1 1 0 010-2h2a1 1 0 011 1zm0-6a1 1 0 01-1 1h-2a1 1 0 010-2h2a1 1 0 011 1zm0-14a1 1 0 011-1h2a1 1 0 010 2h-2a1 1 0 01-1-1zm10 0a1 1 0 011-1h2a1 1 0 110 2h-2a1 1 0 01-1-1zm10 0a1 1 0 011-1h2a1 1 0 110 2h-2a1 1 0 01-1-1zM11 8c.551 0 1 .449 1 1 0 .551-.449 1-1 1-.551 0-1-.449-1-1 0-.551.449-1 1-1zM8 9c0 1.654 1.346 3 3 3s3-1.346 3-3a2.996 2.996 0 00-2-2.816V1a1 1 0 00-2 0v5.184A2.996 2.996 0 008 9zm33-1a1.001 1.001 0 010 2 1.001 1.001 0 010-2zm-3 1c0 1.654 1.346 3 3 3s3-1.346 3-3a2.997 2.997 0 00-2-2.816V1a1 1 0 10-2 0v5.184A2.997 2.997 0 0038 9zm-7-1a1.001 1.001 0 010 2 1.001 1.001 0 010-2zm-3 1c0 1.654 1.346 3 3 3s3-1.346 3-3a2.997 2.997 0 00-2-2.816V1a1 1 0 10-2 0v5.184A2.997 2.997 0 0028 9zm-7-1c.551 0 1 .449 1 1 0 .551-.449 1-1 1-.551 0-1-.449-1-1 0-.551.449-1 1-1zm-3 1c0 1.654 1.346 3 3 3s3-1.346 3-3a2.996 2.996 0 00-2-2.816V1a1 1 0 00-2 0v5.184A2.996 2.996 0 0018 9zm29 49H5c-1.122 0-2.286-.915-2.767-2h47.534c-.481 1.085-1.645 2-2.767 2zM2 54h48v-2H2v2zM47 4h-2a1 1 0 100 2h2c1.458 0 3 1.542 3 3v41H2V9c0-1.458 1.542-3 3-3h2a1 1 0 000-2H5C2.43 4 0 6.43 0 9v46c0 2.57 2.43 5 5 5h42c2.57 0 5-2.43 5-5V9c0-2.57-2.43-5-5-5z" fill-rule="evenodd"/></svg>