<svg data-name="Ebene 2" xmlns="http://www.w3.org/2000/svg" viewBox="0 0 93.19 68.15"><g data-name="Ebene 1"><path d="M73.65 29.07c-.87 0-1.72.06-2.55.17L84.75 7.67 89.6 0H46.7l-1.47 2.32-7.09 11.22C35.6 5.69 28.22 0 19.54 0 8.77 0 0 8.76 0 19.54s8.77 19.54 19.54 19.54c.87 0 1.72-.06 2.56-.17L8.45 60.48 3.6 68.15h42.88l1.47-2.33 7.09-11.22c2.54 7.85 9.92 13.55 18.6 13.55 10.78 0 19.54-8.77 19.54-19.54s-8.76-19.54-19.54-19.54" fill="#00a9e0"/><path d="M34.08 19.54C34.08 11.51 27.57 5 19.54 5S5 11.51 5 19.54s6.51 14.54 14.54 14.54 14.54-6.51 14.54-14.54M49.46 5L12.67 63.15h31.06L80.51 5H49.46zm24.19 29.08c-8.03 0-14.54 6.51-14.54 14.54s6.51 14.54 14.54 14.54 14.54-6.51 14.54-14.54-6.51-14.54-14.54-14.54" fill="#fff"/></g></svg>