<svg id="Ebene_2" data-name="Ebene 2" xmlns="http://www.w3.org/2000/svg" viewBox="0 0 328.48 68.15"><defs><style>.cls-3{fill:#00a9e0}</style></defs><g id="Ebene_1-2" data-name="Ebene 1"><path class="cls-3" d="M6.9 54.24h-.36c.24 2.11.36 3.33.36 3.67v10.25H0V31.72h5.61L6.58 35h.32c1.61-2.5 4.01-3.76 7.17-3.76 2.99 0 5.33 1.15 7.01 3.46 1.69 2.31 2.53 5.51 2.53 9.62 0 2.7-.4 5.05-1.19 7.04s-1.92 3.51-3.38 4.55-3.18 1.56-5.16 1.56c-2.97 0-5.3-1.08-6.99-3.24zm1.22-15.9c-.78 1.05-1.19 2.78-1.22 5.19v.75c0 2.72.4 4.66 1.21 5.84s2.09 1.76 3.84 1.76c3.09 0 4.64-2.55 4.64-7.65 0-2.49-.38-4.36-1.14-5.6-.76-1.25-1.96-1.87-3.59-1.87s-2.95.52-3.73 1.57zm37.66-6.89l-.52 6.47c-.56-.15-1.24-.23-2.04-.23-2.2 0-3.92.57-5.15 1.7-1.23 1.13-1.84 2.72-1.84 4.75v12.88h-6.9v-25.3h5.23l1.02 4.25h.34a9.442 9.442 0 013.18-3.43 7.84 7.84 0 014.36-1.3c.94 0 1.71.07 2.33.2zm8.05-9.64c2.5 0 3.76 1.12 3.76 3.37 0 1.07-.31 1.9-.94 2.5-.63.6-1.56.89-2.82.89-2.5 0-3.76-1.13-3.76-3.39s1.25-3.37 3.76-3.37zm-3.46 35.21v-25.3h6.9v25.3h-6.9zm29.89 0V42.24c0-1.83-.31-3.19-.92-4.11-.61-.91-1.57-1.37-2.89-1.37-1.76 0-3.05.65-3.85 1.95-.8 1.3-1.2 3.43-1.2 6.4v11.9h-6.9V31.72h5.27l.93 3.24h.38c.68-1.16 1.66-2.07 2.94-2.73s2.75-.98 4.41-.98c3.79 0 6.35 1.24 7.69 3.71h.61c.68-1.18 1.68-2.09 3-2.74 1.32-.65 2.81-.97 4.47-.97 2.87 0 5.04.74 6.51 2.21 1.47 1.47 2.21 3.83 2.21 7.07v16.5H96V42.25c0-1.83-.31-3.19-.92-4.11-.61-.91-1.57-1.37-2.89-1.37-1.69 0-2.95.6-3.79 1.81s-1.26 3.12-1.26 5.75v12.69h-6.9zm44.48-3.44h-.18c-1.16 1.46-2.36 2.48-3.59 3.04-1.23.57-2.83.85-4.81.85-2.43 0-4.34-.69-5.74-2.08-1.4-1.39-2.09-3.36-2.09-5.93s.94-4.67 2.82-5.94c1.88-1.27 4.71-1.98 8.5-2.12l4.39-.14v-1.11c0-2.56-1.31-3.85-3.94-3.85-2.02 0-4.4.61-7.13 1.83l-2.29-4.66c2.91-1.52 6.14-2.29 9.69-2.29s6 .74 7.81 2.22c1.81 1.48 2.72 3.73 2.72 6.74V57h-4.82l-1.33-3.44zm-3.37-8.19c-2.01.06-3.5.42-4.48 1.09-.98.66-1.47 1.67-1.47 3.03 0 1.95 1.12 2.92 3.35 2.92 1.6 0 2.88-.46 3.84-1.38.96-.92 1.44-2.14 1.44-3.67V45.3l-2.67.09z"/><path d="M154.44 57.02V42.24c0-1.83-.32-3.19-.97-4.11-.65-.91-1.68-1.37-3.1-1.37-1.93 0-3.33.65-4.19 1.93-.86 1.29-1.29 3.43-1.29 6.42v11.9h-6.9V31.72h5.27l.93 3.24h.38a7.27 7.27 0 013.18-2.77c1.35-.63 2.89-.94 4.6-.94 2.94 0 5.17.8 6.7 2.39 1.52 1.59 2.29 3.89 2.29 6.89v16.5h-6.9zm15.01-3.01c-1.7-2.31-2.55-5.51-2.55-9.59s.86-7.38 2.59-9.7 4.11-3.47 7.14-3.47c3.18 0 5.61 1.24 7.29 3.71h.23c-.35-1.89-.52-3.57-.52-5.05v-8.1h6.92v35.21h-5.29l-1.33-3.28h-.29c-1.57 2.49-3.96 3.73-7.17 3.73-2.97 0-5.31-1.15-7-3.46zm13.31-3.58c.82-1.03 1.27-2.77 1.35-5.23v-.75c0-2.72-.42-4.66-1.26-5.84-.84-1.18-2.2-1.76-4.08-1.76-1.54 0-2.73.65-3.59 1.96s-1.28 3.2-1.28 5.69.43 4.36 1.29 5.6c.86 1.24 2.09 1.87 3.69 1.87 1.76 0 3.06-.51 3.88-1.54zm18.47-28.62c2.5 0 3.76 1.12 3.76 3.37 0 1.07-.31 1.9-.94 2.5-.63.6-1.57.89-2.82.89-2.5 0-3.76-1.13-3.76-3.39s1.25-3.37 3.76-3.37zm-3.46 35.21v-25.3h6.9v25.3h-6.9zm29.08-1.58c-1.8 1.36-4.5 2.04-8.09 2.04-1.84 0-3.41-.12-4.71-.37-1.3-.25-2.51-.61-3.64-1.1v-5.7c1.28.6 2.73 1.11 4.33 1.52 1.61.41 3.02.61 4.24.61 2.5 0 3.76-.72 3.76-2.17 0-.54-.17-.98-.5-1.32s-.91-.72-1.72-1.15c-.81-.43-1.9-.93-3.26-1.5-1.95-.81-3.38-1.57-4.29-2.26-.91-.69-1.58-1.49-1.99-2.39-.42-.9-.62-2-.62-3.32 0-2.25.87-3.99 2.61-5.22 1.74-1.23 4.21-1.84 7.41-1.84s6.01.66 8.89 1.99l-2.08 4.98c-1.27-.54-2.45-.99-3.55-1.33-1.1-.35-2.23-.52-3.37-.52-2.04 0-3.05.55-3.05 1.65 0 .62.33 1.15.98 1.61.66.45 2.09 1.12 4.31 2.01 1.98.8 3.42 1.55 4.34 2.24.92.69 1.6 1.49 2.04 2.4s.66 1.98.66 3.24c0 2.59-.9 4.57-2.7 5.93z" fill="#002855"/><path class="cls-3" d="M10.51 63.16h219.05v4.99H10.51zm298.44-34.09c-.87 0-1.72.06-2.55.17l13.65-21.57L324.9 0h-42.89l-1.47 2.32-7.09 11.22C270.91 5.69 263.53 0 254.85 0c-10.77 0-19.54 8.76-19.54 19.54s8.77 19.54 19.54 19.54c.87 0 1.72-.06 2.56-.17l-13.65 21.57-4.85 7.67h42.89l1.47-2.33 7.09-11.22c2.54 7.85 9.92 13.55 18.6 13.55 10.78 0 19.54-8.77 19.54-19.54s-8.76-19.54-19.54-19.54"/><path d="M269.37 19.54c0-8.03-6.51-14.54-14.54-14.54s-14.54 6.51-14.54 14.54 6.51 14.54 14.54 14.54 14.54-6.51 14.54-14.54M284.75 5l-36.79 58.15h31.06L315.81 5h-31.05zm24.19 29.08c-8.03 0-14.54 6.51-14.54 14.54s6.51 14.54 14.54 14.54 14.54-6.51 14.54-14.54-6.51-14.54-14.54-14.54" fill="#fff"/></g></svg>