<svg id="Ebene_2" data-name="Ebene 2" xmlns="http://www.w3.org/2000/svg" viewBox="0 0 145.93 296.36"><defs><style>.cls-1{fill:#0fa9e0}</style></defs><g id="Handy_blau" data-name="Handy blau"><path d="M34.93 19.19h92c8.83 0 16 7.17 16 16v236.17c0 12.14-9.86 22-22 22h-82c-11.04 0-20-8.96-20-20V35.19c0-8.83 7.17-16 16-16z" opacity=".8" stroke="#1d2d50" stroke-miterlimit="10" stroke-width="6" fill="#1d2d50"/><path d="M23 3h84c11.04 0 20 8.96 20 20v241.28c0 8.83-7.17 16-16 16H19c-8.83 0-16-7.17-16-16V23C3 11.96 11.96 3 23 3z" opacity=".8" stroke="#0fa9e0" stroke-miterlimit="10" stroke-width="6" fill="#0fa9e0"/><rect x="8.17" y="9.44" width="130" height="280" rx="20" ry="20" stroke="#1d2d50" stroke-miterlimit="10" stroke-width="6" fill="none"/><rect x="56.83" y="6.44" width="32.67" height="12" rx="3.5" ry="3.5" fill="#1d2d50"/><g opacity=".6"><circle class="cls-1" cx="17.67" cy="114.5" r="4"/><circle class="cls-1" cx="17.67" cy="88.5" r="4"/><circle class="cls-1" cx="30.67" cy="101.5" r="4"/><circle class="cls-1" cx="43.83" cy="88.5" r="4"/><circle class="cls-1" cx="43.83" cy="62.5" r="4"/><circle class="cls-1" cx="30.83" cy="75.5" r="4"/><circle class="cls-1" cx="56.83" cy="75.5" r="4"/><circle class="cls-1" cx="73" cy="62.17" r="4"/><circle class="cls-1" cx="73" cy="36.17" r="4"/><circle class="cls-1" cx="60" cy="49.17" r="4"/><circle class="cls-1" cx="86" cy="49.17" r="4"/><circle class="cls-1" cx="99" cy="36.17" r="4"/><circle class="cls-1" cx="86" cy="23.17" r="4"/><circle class="cls-1" cx="112" cy="23.17" r="4"/><circle class="cls-1" cx="17.5" cy="62.33" r="4"/><circle class="cls-1" cx="17.5" cy="36.33" r="4"/><circle class="cls-1" cx="30.5" cy="49.33" r="4"/><circle class="cls-1" cx="46.67" cy="36" r="4"/><circle class="cls-1" cx="33.67" cy="23" r="4"/><circle class="cls-1" cx="59.67" cy="23" r="4"/></g></g></svg>