<svg data-name="Ebene 2" xmlns="http://www.w3.org/2000/svg" viewBox="0 0 98.94 159.24"><path d="M19.32 118.46l4.91 38.16c.19 1.5 1.47 2.62 2.98 2.62h44.48c1.51 0 2.78-1.12 2.98-2.61l4.95-38.17c11.74-9.04 19.32-23.25 19.32-39.19S91.31 49.03 79.5 39.99L74.69 2.62A3.001 3.001 0 0071.71 0H27.25c-1.51 0-2.78 1.12-2.98 2.62l-4.84 37.37C7.63 49.03 0 63.27 0 79.27s7.58 30.15 19.32 39.19zm8.33-76.77c6.41-3.75 13.87-5.89 21.82-5.89s15.41 2.14 21.82 5.89c12.94 7.53 21.65 21.56 21.65 37.58s-9.39 31.11-23.15 38.42c-6.06 3.22-12.98 5.05-20.32 5.05s-14.26-1.83-20.32-5.05C15.39 110.38 6 95.9 6 79.27s8.71-30.05 21.65-37.58z" fill="#2d2d2d" data-name="Watch grau"/></svg>